<svg width="45" height="45" viewBox="0 0 45 45" fill="none" xmlns="http://www.w3.org/2000/svg">
<circle cx="22.5" cy="22.5" r="22.5" fill="#353273"/>
<path d="M33.6899 22.7848C33.5567 22.9406 33.4473 23.1153 33.3652 23.3032V23.3544H31.2519C31.1008 23.3544 30.9559 23.2944 30.8491 23.1876C30.7423 23.0808 30.6823 22.9359 30.6823 22.7848C30.6823 22.6337 30.7423 22.4888 30.8491 22.382C30.9559 22.2752 31.1008 22.2152 31.2519 22.2152H33.3424V22.2607C33.4368 22.4487 33.5535 22.6247 33.6899 22.7848ZM15.6044 22.2152C15.7207 22.4219 15.8623 22.6132 16.0259 22.7848C15.8628 22.9555 15.723 23.147 15.6101 23.3544H12.2892L12.4601 23.0981C12.4767 23.0753 12.4902 23.0504 12.5 23.024C12.5157 22.9909 12.5291 22.9566 12.5399 22.9215C12.5516 22.8769 12.5574 22.8309 12.557 22.7848C12.5625 22.7413 12.5625 22.6973 12.557 22.6538C12.5462 22.6187 12.5328 22.5844 12.5171 22.5513C12.5097 22.5349 12.5001 22.5195 12.4886 22.5057L12.3177 22.2494L15.6044 22.2152ZM29.3437 22.7848C29.3437 22.9359 29.2837 23.0808 29.1768 23.1876C29.07 23.2944 28.9251 23.3544 28.7741 23.3544H23.6475L23.8127 23.1892C23.866 23.1363 23.9084 23.0733 23.9373 23.0039C23.9663 22.9344 23.9812 22.86 23.9812 22.7848C23.9812 22.7096 23.9663 22.6352 23.9373 22.5657C23.9084 22.4963 23.866 22.4333 23.8127 22.3804L23.619 22.2152H28.7456C28.8227 22.2113 28.8999 22.2232 28.9723 22.2501C29.0447 22.277 29.1109 22.3183 29.1669 22.3716C29.2228 22.4249 29.2674 22.489 29.2978 22.56C29.3281 22.6311 29.3438 22.7075 29.3437 22.7848ZM10.0677 20.9278L10.9222 22.2152H8V21.5544C8.0069 21.3157 8.08865 21.0851 8.23371 20.8954C8.37877 20.7057 8.5798 20.5663 8.80838 20.497C9.03695 20.4278 9.28152 20.4321 9.50751 20.5094C9.73349 20.5867 9.92946 20.7331 10.0677 20.9278Z" fill="#D85B53"/>
<path d="M10.9222 22.2152H8V21.5544C8.0069 21.3157 8.08865 21.0851 8.23371 20.8954C8.37877 20.7057 8.5798 20.5663 8.80838 20.497C9.03695 20.4278 9.28152 20.4321 9.50751 20.5094C9.73349 20.5867 9.92946 20.7331 10.0677 20.9278L10.9222 22.2152ZM8 23.3544H10.9222L10.0677 24.6418C9.96485 24.794 9.82669 24.9191 9.66501 25.0064C9.50334 25.0937 9.32295 25.1405 9.13924 25.143C8.8371 25.143 8.54732 25.023 8.33368 24.8094C8.12003 24.5957 8 24.3059 8 24.0038V23.3544Z" fill="#D85B53"/>
<path d="M10.9222 23.3544L10.0677 24.6418C9.96485 24.794 9.82669 24.9191 9.66501 25.0064C9.50334 25.0936 9.32295 25.1405 9.13924 25.143C8.8371 25.143 8.54732 25.023 8.33368 24.8093C8.12003 24.5957 8 24.3059 8 24.0038V23.3544H10.9222ZM26.2278 39.3038C24.7297 39.3038 21.7278 38.4721 21.1013 35.4304C20.4633 32.2462 22.4399 29.7342 24.6728 27.5069C25.812 26.3677 26.5127 25.6728 26.9968 25.1145C27.3924 24.6803 27.726 24.1934 27.988 23.6677C28.13 23.3951 28.2042 23.0922 28.2044 22.7848C28.2042 22.4769 28.1341 22.173 27.9994 21.8962C27.4696 20.8367 26.9342 20.3013 24.6842 18.0569C22.4342 15.8126 20.4747 13.3234 21.1013 10.1392C21.7222 7.09745 24.7241 6.26581 26.2278 6.26581C26.3397 6.2659 26.449 6.2989 26.5422 6.36068C26.6353 6.42247 26.7083 6.51032 26.7519 6.61328C26.7968 6.71773 26.8093 6.83322 26.788 6.94488C26.7667 7.05655 26.7125 7.15928 26.6323 7.23986C26.6323 7.23986 24.6956 9.21644 24.7753 11.5348C24.8231 12.2009 25.0106 12.8495 25.3256 13.4384C25.6407 14.0272 26.0762 14.5431 26.6038 14.9525C29.8848 17.8006 31.1608 20.4152 31.6278 21.7082C31.8862 22.4027 31.8862 23.1669 31.6278 23.8614C31.1608 25.1544 29.8848 27.7462 26.6038 30.6171C26.0751 31.0255 25.6388 31.5411 25.3237 32.1302C25.0085 32.7193 24.8217 33.3683 24.7753 34.0348C24.6956 36.3645 26.6095 38.3069 26.6323 38.324C26.7125 38.4046 26.7667 38.5073 26.788 38.619C26.8093 38.7307 26.7968 38.8462 26.7519 38.9506C26.7092 39.0546 26.6366 39.1437 26.5433 39.2065C26.4501 39.2694 26.3403 39.3032 26.2278 39.3038Z" fill="#D85B53"/>
<path d="M24.8779 7.63289C24.2234 7.78997 23.6275 8.13077 23.1602 8.61517C22.693 9.09957 22.3739 9.70739 22.2405 10.3671C21.7392 12.8734 23.1804 14.924 25.5044 17.2538C27.8285 19.5835 28.4152 20.1702 29.0247 21.3892C29.2393 21.8228 29.3486 22.301 29.3437 22.7848C29.3479 23.268 29.2345 23.745 29.0133 24.1747C28.7143 24.7941 28.3309 25.3692 27.8741 25.8835C27.3671 26.4531 26.6665 27.1709 25.5044 28.3329C23.169 30.6342 21.7279 32.6962 22.2405 35.2025C22.3748 35.8636 22.6956 36.4725 23.165 36.957C23.6344 37.4416 24.2327 37.7815 24.8892 37.9367C24.0846 36.7815 23.6514 35.4084 23.6475 34.0006C23.696 33.1777 23.9186 32.3744 24.3006 31.6438C24.6826 30.9133 25.2152 30.2721 25.8633 29.7626C28.9506 27.0569 30.1354 24.6361 30.5684 23.4968C30.6502 23.2782 30.6926 23.0467 30.6937 22.8133C30.6958 22.58 30.6552 22.3484 30.5741 22.1297C30.1354 20.9335 28.9506 18.5354 25.8633 15.8297C25.2152 15.3203 24.6826 14.6791 24.3006 13.9485C23.9186 13.218 23.696 12.4147 23.6475 11.5917C23.6434 10.1774 24.0728 8.79579 24.8779 7.63289Z" fill="#D85B53"/>
<path d="M19.3582 19.5778L22.5766 22.7848L19.3924 26.0032C19.1446 26.2458 18.8321 26.4119 18.4924 26.4816C18.2109 26.5422 17.9186 26.5305 17.6428 26.4479C17.3669 26.3652 17.1164 26.2142 16.9146 26.0088C16.7503 25.8479 16.6203 25.6555 16.5322 25.4431C16.4441 25.2307 16.3998 25.0027 16.4019 24.7728C16.4006 24.6542 16.412 24.5358 16.4361 24.4196C16.4631 24.2862 16.5051 24.1562 16.5614 24.0323C16.6473 23.8466 16.7671 23.6785 16.9146 23.5367L17.2563 23.1892C17.3219 23.1218 17.3697 23.0391 17.3956 22.9487C17.4214 22.8582 17.4245 22.7628 17.4044 22.6709C17.4102 22.6388 17.4102 22.6061 17.4044 22.574C17.3988 22.5505 17.387 22.5289 17.3703 22.5114C17.3506 22.4611 17.3194 22.4162 17.2791 22.3804L16.943 22.0443C16.7009 21.7998 16.5363 21.4893 16.4699 21.1517C16.4034 20.8141 16.438 20.4644 16.5694 20.1463C16.7007 19.8283 16.923 19.5561 17.2083 19.3638C17.4936 19.1715 17.8293 19.0676 18.1734 19.0652C18.2901 19.0641 18.4066 19.0756 18.5209 19.0994C18.805 19.1574 19.0696 19.2868 19.2899 19.4753C19.3148 19.508 19.3377 19.5422 19.3582 19.5778Z" fill="#D45985"/>
<path d="M22.5766 22.7848L19.3924 26.0032C19.1446 26.2458 18.8321 26.4119 18.4924 26.4816C18.2109 26.5422 17.9186 26.5305 17.6428 26.4479C17.3669 26.3652 17.1164 26.2142 16.9146 26.0088C16.7503 25.8479 16.6203 25.6555 16.5322 25.4431C16.4441 25.2307 16.3998 25.0027 16.4019 24.7728C16.4006 24.6542 16.412 24.5358 16.4361 24.4196C16.4631 24.2862 16.5051 24.1562 16.5614 24.0323C16.6473 23.8466 16.7671 23.6785 16.9146 23.5367L17.2563 23.1892C17.3219 23.1218 17.3697 23.0391 17.3956 22.9487C17.4214 22.8582 17.4245 22.7628 17.4044 22.6709C17.4102 22.6388 17.4102 22.6061 17.4044 22.574C17.3988 22.5505 17.387 22.5289 17.3703 22.5114C17.3506 22.4611 17.3194 22.4162 17.2791 22.3804L16.943 22.0443C16.7009 21.7998 16.5363 21.4893 16.4699 21.1517C16.4034 20.8141 16.438 20.4644 16.5694 20.1463C16.7007 19.8283 16.923 19.5561 17.2083 19.3638C17.4936 19.1715 17.8293 19.0676 18.1734 19.0652C18.2901 19.0641 18.4066 19.0756 18.5209 19.0994C18.805 19.1574 19.0696 19.2868 19.2899 19.4753C19.3325 19.5061 19.3725 19.5404 19.4095 19.5778L22.5766 22.7848ZM38.6114 22.7848L36.293 25.1031C36.1276 25.2667 35.9176 25.3777 35.6892 25.4221C35.52 25.4567 35.3452 25.4533 35.1774 25.4121C35.0096 25.3709 34.8531 25.293 34.719 25.1841C34.585 25.0751 34.4768 24.9377 34.4023 24.7819C34.3277 24.6261 34.2887 24.4556 34.288 24.2829C34.2935 24.1119 34.3322 23.9436 34.4019 23.7873C34.4577 23.6646 34.5348 23.5527 34.6297 23.4569L34.8918 23.2006C34.945 23.1497 34.9859 23.0874 35.0114 23.0183C35.0165 22.992 35.0165 22.9649 35.0114 22.9386C35.0399 22.8458 35.0399 22.7466 35.0114 22.6538C35.0165 22.6274 35.0165 22.6004 35.0114 22.574C34.9859 22.505 34.945 22.4426 34.8918 22.3918L34.6297 22.1354C34.5311 22.0372 34.4518 21.9213 34.3962 21.7937C34.3141 21.615 34.2782 21.4185 34.2919 21.2223C34.3055 21.0262 34.3683 20.8366 34.4743 20.671C34.5804 20.5054 34.7263 20.3691 34.8988 20.2746C35.0713 20.1801 35.2647 20.1305 35.4614 20.1304C35.54 20.1314 35.6183 20.141 35.6949 20.1588C35.8831 20.1979 36.059 20.282 36.2076 20.4038C36.2368 20.4254 36.2636 20.4503 36.2873 20.4778L38.6114 22.7848Z" fill="#D45985"/>
<path d="M38.6114 22.7848L36.293 25.1032C36.1276 25.2667 35.9176 25.3777 35.6892 25.4221C35.52 25.4567 35.3452 25.4533 35.1774 25.4121C35.0096 25.3709 34.8531 25.293 34.719 25.1841C34.585 25.0751 34.4768 24.9377 34.4023 24.7819C34.3277 24.6261 34.2887 24.4556 34.288 24.2829C34.2935 24.1119 34.3322 23.9436 34.4019 23.7873C34.4577 23.6646 34.5348 23.5527 34.6297 23.457L34.8918 23.2006C34.945 23.1497 34.9859 23.0874 35.0114 23.0183C35.0165 22.992 35.0165 22.9649 35.0114 22.9386C35.0399 22.8458 35.0399 22.7466 35.0114 22.6538C35.0165 22.6274 35.0165 22.6004 35.0114 22.574C34.9859 22.505 34.945 22.4426 34.8918 22.3918L34.6297 22.1354C34.5311 22.0372 34.4518 21.9213 34.3962 21.7937C34.3141 21.615 34.2782 21.4185 34.2919 21.2223C34.3055 21.0262 34.3683 20.8366 34.4743 20.671C34.5804 20.5054 34.7263 20.3691 34.8988 20.2746C35.0713 20.1802 35.2647 20.1306 35.4614 20.1304C35.54 20.1314 35.6183 20.141 35.6949 20.1589C35.8831 20.1979 36.059 20.282 36.2076 20.4038C36.2368 20.4254 36.2636 20.4503 36.2873 20.4778L38.6114 22.7848Z" fill="#D45985"/>
</svg>
