<svg id="visual" viewBox="0 0 900 600" width="900" height="600" xmlns="http://www.w3.org/2000/svg" xmlns:xlink="http://www.w3.org/1999/xlink" version="1.1"><path d="M0 139L50 134C100 129 200 119 300 118C400 117 500 125 600 124C700 123 800 113 850 108L900 103L900 0L850 0C800 0 700 0 600 0C500 0 400 0 300 0C200 0 100 0 50 0L0 0Z" fill="#d98b8b"></path><path d="M0 337L50 330C100 323 200 309 300 306C400 303 500 311 600 310C700 309 800 299 850 294L900 289L900 101L850 106C800 111 700 121 600 122C500 123 400 115 300 116C200 117 100 127 50 132L0 137Z" fill="#d27681"></path><path d="M0 487L50 487C100 487 200 487 300 491C400 495 500 503 600 506C700 509 800 507 850 506L900 505L900 287L850 292C800 297 700 307 600 308C500 309 400 301 300 304C200 307 100 321 50 328L0 335Z" fill="#c9617a"></path><path d="M0 601L50 601C100 601 200 601 300 601C400 601 500 601 600 601C700 601 800 601 850 601L900 601L900 503L850 504C800 505 700 507 600 504C500 501 400 493 300 489C200 485 100 485 50 485L0 485Z" fill="#bf4b75"></path></svg>